<mxfile host="65bd71144e">
    <diagram id="DCIoUEVkfJFyW4a2RkL5" name="Page-1">
        <mxGraphModel dx="720" dy="549" grid="1" gridSize="10" guides="1" tooltips="1" connect="1" arrows="1" fold="1" page="1" pageScale="1" pageWidth="850" pageHeight="1100" math="0" shadow="0">
            <root>
                <mxCell id="0"/>
                <mxCell id="1" parent="0"/>
                <mxCell id="2" value="" style="group;dropTarget=0;pointerEvents=0;" vertex="1" parent="1">
                    <mxGeometry x="130" y="460" width="4058" height="392" as="geometry"/>
                </mxCell>
                <UserObject label="Inicio" lucidchartObjectId="8ZloIShlIPnA" id="3">
                    <mxCell style="html=1;overflow=block;blockSpacing=1;whiteSpace=wrap;fontSize=13;spacing=9;strokeColor=#unset;rounded=1;absoluteArcSize=1;arcSize=12;fillColor=#unset;strokeWidth=NaN;" vertex="1" parent="2">
                        <mxGeometry width="151" height="121" as="geometry"/>
                    </mxCell>
                </UserObject>
                <UserObject label="¿Está el usuario registrado?" lucidchartObjectId="8ZlosX4oXzAJ" id="4">
                    <mxCell style="html=1;overflow=block;blockSpacing=1;whiteSpace=wrap;rhombus;fontSize=13;spacing=3.8;strokeColor=#unset;rounded=1;absoluteArcSize=1;arcSize=12;fillColor=#unset;strokeWidth=NaN;" vertex="1" parent="2">
                        <mxGeometry x="301" width="150" height="120" as="geometry"/>
                    </mxCell>
                </UserObject>
                <UserObject label="Usuario Visita el Sitio Web de E-Commerce" lucidchartObjectId="8ZloK3t1VFDA" id="5">
                    <mxCell style="html=1;overflow=block;blockSpacing=1;whiteSpace=wrap;fontSize=13;spacing=9;strokeColor=#unset;rounded=1;absoluteArcSize=1;arcSize=12;fillColor=#unset;strokeWidth=NaN;" vertex="1" parent="2">
                        <mxGeometry x="601" width="151" height="121" as="geometry"/>
                    </mxCell>
                </UserObject>
                <UserObject label="Página de Registro/Login" lucidchartObjectId="8Zlo97lxvsdl" id="6">
                    <mxCell style="html=1;overflow=block;blockSpacing=1;whiteSpace=wrap;fontSize=13;spacing=9;strokeColor=#unset;rounded=1;absoluteArcSize=1;arcSize=12;fillColor=#unset;strokeWidth=NaN;" vertex="1" parent="2">
                        <mxGeometry x="601" y="271" width="151" height="121" as="geometry"/>
                    </mxCell>
                </UserObject>
                <UserObject label="Mostrar Listados de Teléfonos Celulares" lucidchartObjectId="8Zlo-7OO.WV0" id="7">
                    <mxCell style="html=1;overflow=block;blockSpacing=1;whiteSpace=wrap;fontSize=13;spacing=9;strokeColor=#unset;rounded=1;absoluteArcSize=1;arcSize=12;fillColor=#unset;strokeWidth=NaN;" vertex="1" parent="2">
                        <mxGeometry x="902" width="151" height="121" as="geometry"/>
                    </mxCell>
                </UserObject>
                <UserObject label="¿Usuario Selecciona un Teléfono Celular?" lucidchartObjectId="8ZloAFofW7_h" id="8">
                    <mxCell style="html=1;overflow=block;blockSpacing=1;whiteSpace=wrap;rhombus;fontSize=13;spacing=3.8;strokeColor=#unset;rounded=1;absoluteArcSize=1;arcSize=12;fillColor=#unset;strokeWidth=NaN;" vertex="1" parent="2">
                        <mxGeometry x="1202" width="150" height="120" as="geometry"/>
                    </mxCell>
                </UserObject>
                <UserObject label="Ver Detalles del Teléfono Celular" lucidchartObjectId="8ZloT20Z8gJW" id="9">
                    <mxCell style="html=1;overflow=block;blockSpacing=1;whiteSpace=wrap;fontSize=13;spacing=9;strokeColor=#unset;rounded=1;absoluteArcSize=1;arcSize=12;fillColor=#unset;strokeWidth=NaN;" vertex="1" parent="2">
                        <mxGeometry x="1502" width="151" height="121" as="geometry"/>
                    </mxCell>
                </UserObject>
                <UserObject label="¿Agregar al Carrito?" lucidchartObjectId="8ZlonNs0t8p2" id="10">
                    <mxCell style="html=1;overflow=block;blockSpacing=1;whiteSpace=wrap;rhombus;fontSize=13;spacing=3.8;strokeColor=#unset;rounded=1;absoluteArcSize=1;arcSize=12;fillColor=#unset;strokeWidth=NaN;" vertex="1" parent="2">
                        <mxGeometry x="1803" width="150" height="120" as="geometry"/>
                    </mxCell>
                </UserObject>
                <UserObject label="Agregar Teléfono Celular al Carrito" lucidchartObjectId="9ZloJpSd4dAx" id="11">
                    <mxCell style="html=1;overflow=block;blockSpacing=1;whiteSpace=wrap;fontSize=13;spacing=9;strokeColor=#unset;rounded=1;absoluteArcSize=1;arcSize=12;fillColor=#unset;strokeWidth=NaN;" vertex="1" parent="2">
                        <mxGeometry x="2103" width="151" height="121" as="geometry"/>
                    </mxCell>
                </UserObject>
                <UserObject label="¿Proceder al Pago?" lucidchartObjectId="9Zlo~Hd6-VqX" id="12">
                    <mxCell style="html=1;overflow=block;blockSpacing=1;whiteSpace=wrap;rhombus;fontSize=13;spacing=3.8;strokeColor=#unset;rounded=1;absoluteArcSize=1;arcSize=12;fillColor=#unset;strokeWidth=NaN;" vertex="1" parent="2">
                        <mxGeometry x="2404" width="150" height="120" as="geometry"/>
                    </mxCell>
                </UserObject>
                <UserObject label="Usuario Procede al Pago" lucidchartObjectId="9ZloWVt2~xCg" id="13">
                    <mxCell style="html=1;overflow=block;blockSpacing=1;whiteSpace=wrap;fontSize=13;spacing=9;strokeColor=#unset;rounded=1;absoluteArcSize=1;arcSize=12;fillColor=#unset;strokeWidth=NaN;" vertex="1" parent="2">
                        <mxGeometry x="2704" width="151" height="121" as="geometry"/>
                    </mxCell>
                </UserObject>
                <UserObject label="Usuario Ingresa Información de Envío y Pago" lucidchartObjectId="9ZloPXV1EQHK" id="14">
                    <mxCell style="html=1;overflow=block;blockSpacing=1;whiteSpace=wrap;fontSize=13;spacing=9;strokeColor=#unset;rounded=1;absoluteArcSize=1;arcSize=12;fillColor=#unset;strokeWidth=NaN;" vertex="1" parent="2">
                        <mxGeometry x="3005" width="151" height="121" as="geometry"/>
                    </mxCell>
                </UserObject>
                <UserObject label="Realizar Pedido" lucidchartObjectId="9ZlosoYcDDHF" id="15">
                    <mxCell style="html=1;overflow=block;blockSpacing=1;whiteSpace=wrap;fontSize=13;spacing=9;strokeColor=#unset;rounded=1;absoluteArcSize=1;arcSize=12;fillColor=#unset;strokeWidth=NaN;" vertex="1" parent="2">
                        <mxGeometry x="3305" width="151" height="121" as="geometry"/>
                    </mxCell>
                </UserObject>
                <UserObject label="Correo Electrónico de Confirmación de Pedido Enviado" lucidchartObjectId="9Zlo7ekp9g1q" id="16">
                    <mxCell style="html=1;overflow=block;blockSpacing=1;whiteSpace=wrap;fontSize=13;spacing=9;strokeColor=#unset;rounded=1;absoluteArcSize=1;arcSize=12;fillColor=#unset;strokeWidth=NaN;" vertex="1" parent="2">
                        <mxGeometry x="3606" width="151" height="121" as="geometry"/>
                    </mxCell>
                </UserObject>
                <UserObject label="Fin" lucidchartObjectId="9Zlo8Ep1xlk0" id="17">
                    <mxCell style="html=1;overflow=block;blockSpacing=1;whiteSpace=wrap;fontSize=13;spacing=9;strokeColor=#unset;rounded=1;absoluteArcSize=1;arcSize=12;fillColor=#unset;strokeWidth=NaN;" vertex="1" parent="2">
                        <mxGeometry x="3907" width="151" height="121" as="geometry"/>
                    </mxCell>
                </UserObject>
                <UserObject label="" lucidchartObjectId="9ZloMq~-bY1W" id="18">
                    <mxCell style="html=1;jettySize=18;whiteSpace=wrap;fontSize=13;strokeColor=#333333;strokeOpacity=100;strokeWidth=0.8;rounded=1;arcSize=24;edgeStyle=orthogonalEdgeStyle;startArrow=none;endArrow=block;endFill=1;exitX=1.005;exitY=0.5;exitPerimeter=0;entryX=0.014;entryY=0.5;entryPerimeter=0;" edge="1" parent="2" source="3" target="4">
                        <mxGeometry width="100" height="100" relative="1" as="geometry">
                            <Array as="points"/>
                        </mxGeometry>
                    </mxCell>
                </UserObject>
                <UserObject label="" lucidchartObjectId="9ZloLanI.RY~" id="19">
                    <mxCell style="html=1;jettySize=18;whiteSpace=wrap;fontSize=13;strokeColor=#333333;strokeOpacity=100;strokeWidth=0.8;rounded=1;arcSize=24;edgeStyle=orthogonalEdgeStyle;startArrow=none;endArrow=block;endFill=1;exitX=0.986;exitY=0.5;exitPerimeter=0;entryX=-0.005;entryY=0.5;entryPerimeter=0;" edge="1" parent="2" source="4" target="5">
                        <mxGeometry width="100" height="100" relative="1" as="geometry">
                            <Array as="points"/>
                        </mxGeometry>
                    </mxCell>
                </UserObject>
                <mxCell id="20" value="Sí" style="text;html=1;resizable=0;labelBackgroundColor=default;align=center;verticalAlign=middle;fontColor=#666666;fontSize=13;" vertex="1" parent="19">
                    <mxGeometry relative="1" as="geometry"/>
                </mxCell>
                <UserObject label="" lucidchartObjectId="9ZlonjEz5gZI" id="21">
                    <mxCell style="html=1;jettySize=18;whiteSpace=wrap;fontSize=13;strokeColor=#e81313;strokeOpacity=100;dashed=1;fixDash=1;strokeWidth=0.8;rounded=1;arcSize=24;edgeStyle=orthogonalEdgeStyle;startArrow=none;endArrow=block;endFill=1;exitX=0.5;exitY=0.989;exitPerimeter=0;entryX=-0.005;entryY=0.5;entryPerimeter=0;" edge="1" parent="2" source="4" target="6">
                        <mxGeometry width="100" height="100" relative="1" as="geometry">
                            <Array as="points">
                                <mxPoint x="377" y="196"/>
                                <mxPoint x="526" y="196"/>
                                <mxPoint x="526" y="330"/>
                            </Array>
                        </mxGeometry>
                    </mxCell>
                </UserObject>
                <mxCell id="22" value="No" style="text;html=1;resizable=0;labelBackgroundColor=default;align=center;verticalAlign=middle;fontColor=#666666;fontSize=13;" vertex="1" parent="21">
                    <mxGeometry relative="1" as="geometry"/>
                </mxCell>
                <UserObject label="" lucidchartObjectId="9ZlovW2RI6X5" id="23">
                    <mxCell style="html=1;jettySize=18;whiteSpace=wrap;fontSize=13;strokeColor=#333333;strokeOpacity=100;strokeWidth=0.8;rounded=1;arcSize=24;edgeStyle=orthogonalEdgeStyle;startArrow=none;endArrow=block;endFill=1;exitX=1.005;exitY=0.5;exitPerimeter=0;entryX=0.5;entryY=0.989;entryPerimeter=0;" edge="1" parent="2" source="6" target="4">
                        <mxGeometry width="100" height="100" relative="1" as="geometry">
                            <Array as="points">
                                <mxPoint x="827" y="330"/>
                                <mxPoint x="827" y="196"/>
                                <mxPoint x="380" y="196"/>
                            </Array>
                        </mxGeometry>
                    </mxCell>
                </UserObject>
                <UserObject label="" lucidchartObjectId="9ZlooWkA3cTF" id="24">
                    <mxCell style="html=1;jettySize=18;whiteSpace=wrap;fontSize=13;strokeColor=#333333;strokeOpacity=100;strokeWidth=0.8;rounded=1;arcSize=24;edgeStyle=orthogonalEdgeStyle;startArrow=none;endArrow=block;endFill=1;exitX=1.005;exitY=0.5;exitPerimeter=0;entryX=-0.005;entryY=0.5;entryPerimeter=0;" edge="1" parent="2" source="5" target="7">
                        <mxGeometry width="100" height="100" relative="1" as="geometry">
                            <Array as="points"/>
                        </mxGeometry>
                    </mxCell>
                </UserObject>
                <UserObject label="" lucidchartObjectId="9Zlo8u1OZ1_H" id="25">
                    <mxCell style="html=1;jettySize=18;whiteSpace=wrap;fontSize=13;strokeColor=#333333;strokeOpacity=100;strokeWidth=0.8;rounded=1;arcSize=24;edgeStyle=orthogonalEdgeStyle;startArrow=none;endArrow=block;endFill=1;exitX=1.005;exitY=0.5;exitPerimeter=0;entryX=0.014;entryY=0.5;entryPerimeter=0;" edge="1" parent="2" source="7" target="8">
                        <mxGeometry width="100" height="100" relative="1" as="geometry">
                            <Array as="points"/>
                        </mxGeometry>
                    </mxCell>
                </UserObject>
                <UserObject label="" lucidchartObjectId="9Zlo~-8Xpan6" id="26">
                    <mxCell style="html=1;jettySize=18;whiteSpace=wrap;fontSize=13;strokeColor=#333333;strokeOpacity=100;strokeWidth=0.8;rounded=1;arcSize=24;edgeStyle=orthogonalEdgeStyle;startArrow=none;endArrow=block;endFill=1;exitX=0.986;exitY=0.5;exitPerimeter=0;entryX=-0.005;entryY=0.5;entryPerimeter=0;" edge="1" parent="2" source="8" target="9">
                        <mxGeometry width="100" height="100" relative="1" as="geometry">
                            <Array as="points"/>
                        </mxGeometry>
                    </mxCell>
                </UserObject>
                <mxCell id="27" value="Sí" style="text;html=1;resizable=0;labelBackgroundColor=default;align=center;verticalAlign=middle;fontColor=#666666;fontSize=13;" vertex="1" parent="26">
                    <mxGeometry relative="1" as="geometry"/>
                </mxCell>
                <UserObject label="" lucidchartObjectId="9Zlo.LOx15jV" id="28">
                    <mxCell style="html=1;jettySize=18;whiteSpace=wrap;fontSize=13;strokeColor=#333333;strokeOpacity=100;strokeWidth=0.8;rounded=1;arcSize=24;edgeStyle=orthogonalEdgeStyle;startArrow=none;endArrow=block;endFill=1;exitX=1.005;exitY=0.5;exitPerimeter=0;entryX=0.014;entryY=0.5;entryPerimeter=0;" edge="1" parent="2" source="9" target="10">
                        <mxGeometry width="100" height="100" relative="1" as="geometry">
                            <Array as="points"/>
                        </mxGeometry>
                    </mxCell>
                </UserObject>
                <UserObject label="" lucidchartObjectId="9ZloZVoVvO~5" id="29">
                    <mxCell style="html=1;jettySize=18;whiteSpace=wrap;fontSize=13;strokeColor=#333333;strokeOpacity=100;strokeWidth=0.8;rounded=1;arcSize=24;edgeStyle=orthogonalEdgeStyle;startArrow=none;endArrow=block;endFill=1;exitX=0.986;exitY=0.5;exitPerimeter=0;entryX=-0.005;entryY=0.5;entryPerimeter=0;" edge="1" parent="2" source="10" target="11">
                        <mxGeometry width="100" height="100" relative="1" as="geometry">
                            <Array as="points"/>
                        </mxGeometry>
                    </mxCell>
                </UserObject>
                <mxCell id="30" value="Sí" style="text;html=1;resizable=0;labelBackgroundColor=default;align=center;verticalAlign=middle;fontColor=#666666;fontSize=13;" vertex="1" parent="29">
                    <mxGeometry relative="1" as="geometry"/>
                </mxCell>
                <UserObject label="" lucidchartObjectId="9ZloWv88RlxF" id="31">
                    <mxCell style="html=1;jettySize=18;whiteSpace=wrap;fontSize=13;strokeColor=#333333;strokeOpacity=100;strokeWidth=0.8;rounded=1;arcSize=24;edgeStyle=orthogonalEdgeStyle;startArrow=none;endArrow=block;endFill=1;exitX=1.005;exitY=0.5;exitPerimeter=0;entryX=0.014;entryY=0.5;entryPerimeter=0;" edge="1" parent="2" source="11" target="12">
                        <mxGeometry width="100" height="100" relative="1" as="geometry">
                            <Array as="points"/>
                        </mxGeometry>
                    </mxCell>
                </UserObject>
                <UserObject label="" lucidchartObjectId="9Zloi5rvc0f5" id="32">
                    <mxCell style="html=1;jettySize=18;whiteSpace=wrap;fontSize=13;strokeColor=#333333;strokeOpacity=100;strokeWidth=0.8;rounded=1;arcSize=24;edgeStyle=orthogonalEdgeStyle;startArrow=none;endArrow=block;endFill=1;exitX=0.986;exitY=0.5;exitPerimeter=0;entryX=-0.005;entryY=0.5;entryPerimeter=0;" edge="1" parent="2" source="12" target="13">
                        <mxGeometry width="100" height="100" relative="1" as="geometry">
                            <Array as="points"/>
                        </mxGeometry>
                    </mxCell>
                </UserObject>
                <mxCell id="33" value="Sí" style="text;html=1;resizable=0;labelBackgroundColor=default;align=center;verticalAlign=middle;fontColor=#666666;fontSize=13;" vertex="1" parent="32">
                    <mxGeometry relative="1" as="geometry"/>
                </mxCell>
            </root>
        </mxGraphModel>
    </diagram>
</mxfile>